<svg width="49" height="49" viewBox="0 0 49 49" fill="none" xmlns="http://www.w3.org/2000/svg">
<rect width="48.3328" height="48.3328" fill="#C70017"/>
<g clip-path="url(#clip0_159_661)">
<path d="M33.9471 16.4933V18.9867C33.9471 19.648 33.6844 20.2822 33.2168 20.7498C32.7492 21.2174 32.115 21.4801 31.4537 21.4801H28.9603V19.8178H31.1512C30.4746 18.6492 29.5232 17.6632 28.3795 16.9452C27.2358 16.2273 25.9343 15.7992 24.5877 15.6979C23.2411 15.5966 21.8902 15.8252 20.652 16.364C19.4137 16.9027 18.3256 17.7353 17.4818 18.7896C16.638 19.8439 16.0641 21.088 15.8097 22.4142C15.5554 23.7404 15.6283 25.1087 16.0222 26.4003C16.4161 27.6919 17.1191 28.868 18.0701 29.8266C19.0212 30.7852 20.1918 31.4974 21.4803 31.9015V33.6186C19.9144 33.2142 18.4704 32.4348 17.273 31.3477C16.0755 30.2607 15.1606 28.8986 14.6071 27.379C14.0536 25.8594 13.8781 24.2279 14.0959 22.6254C14.3137 21.0228 14.9181 19.4974 15.8571 18.1806C16.7961 16.8638 18.0413 15.7953 19.4854 15.0672C20.9296 14.3391 22.5291 13.9734 24.1462 14.0015C25.7632 14.0296 27.3491 14.4508 28.767 15.2287C30.1849 16.0066 31.3922 17.1178 32.2848 18.4664V16.4933H33.9471ZM28.1292 28.9601C28.1292 28.2989 27.8665 27.6647 27.3989 27.1971C26.9313 26.7295 26.2971 26.4668 25.6359 26.4668C24.9746 26.4668 24.3404 26.7295 23.8728 27.1971C23.4052 27.6647 23.1425 28.2989 23.1425 28.9601H24.8047C24.8047 28.7397 24.8923 28.5283 25.0482 28.3725C25.204 28.2166 25.4154 28.129 25.6359 28.129C25.8563 28.129 26.0677 28.2166 26.2235 28.3725C26.3794 28.5283 26.467 28.7397 26.467 28.9601C26.467 29.3757 25.7605 29.906 25.1372 30.3731C24.2022 31.0745 23.1425 31.8691 23.1425 33.1157V33.9469H28.1292V32.2846H25.3948C25.6201 32.0885 25.8844 31.8907 26.1345 31.7028C27.0695 31.0014 28.1292 30.2068 28.1292 28.9601ZM32.2848 29.7913H30.6226V26.4668H28.9603V29.7913C28.9603 30.2321 29.1355 30.6549 29.4472 30.9666C29.7589 31.2784 30.1817 31.4535 30.6226 31.4535H32.2848V33.9469H33.9471V26.4668H32.2848V29.7913ZM24.8047 18.9867H23.1425V23.1423H19.818V24.8045H24.8047V18.9867Z" fill="white"/>
</g>
<defs>
<clipPath id="clip0_159_661">
<rect width="19.9469" height="19.9469" fill="white" transform="translate(14 14)"/>
</clipPath>
</defs>
</svg>
