<svg width="49" height="49" viewBox="0 0 49 49" fill="none" xmlns="http://www.w3.org/2000/svg">
<rect width="48.3328" height="48.3328" fill="#C70017"/>
<path d="M21.498 15H15.722C15.5305 15 15.3469 15.0761 15.2115 15.2115C15.0761 15.3469 15 15.5305 15 15.722V21.498" stroke="white" stroke-width="1.47956" stroke-linecap="round" stroke-linejoin="round"/>
<path d="M33.772 21.498V15.722C33.772 15.5305 33.6958 15.3469 33.5604 15.2115C33.425 15.0761 33.2414 15 33.05 15H27.2739" stroke="white" stroke-width="1.47956" stroke-linecap="round" stroke-linejoin="round"/>
<path d="M27.2739 33.7719H33.05C33.2414 33.7719 33.425 33.6958 33.5604 33.5604C33.6958 33.4251 33.772 33.2415 33.772 33.05V27.2739" stroke="white" stroke-width="1.47956" stroke-linecap="round" stroke-linejoin="round"/>
<path d="M15 27.2739V33.05C15 33.2415 15.0761 33.4251 15.2115 33.5604C15.3469 33.6958 15.5305 33.7719 15.722 33.7719H21.498" stroke="white" stroke-width="1.47956" stroke-linecap="round" stroke-linejoin="round"/>
<path d="M26.8738 21.6316C26.7872 21.3865 26.6535 21.1637 26.4837 20.974C26.1225 20.5704 25.5975 20.3164 25.0133 20.3164H23.4863C22.5137 20.3164 21.7253 21.1048 21.7253 22.0773C21.7253 22.9049 22.3016 23.6208 23.11 23.7976L25.4348 24.3062C26.3405 24.5043 26.986 25.3069 26.986 26.2339C26.986 27.3235 26.1028 28.2074 25.0133 28.2074H23.6981C22.8391 28.2074 22.1084 27.6585 21.8376 26.8922" stroke="white" stroke-width="1.47956" stroke-linecap="round" stroke-linejoin="round"/>
<path d="M24.3557 20.3165V18.3438" stroke="white" stroke-width="1.47956" stroke-linecap="round" stroke-linejoin="round"/>
<path d="M24.3557 30.1799V28.207" stroke="white" stroke-width="1.47956" stroke-linecap="round" stroke-linejoin="round"/>
</svg>
