<svg width="45" height="49" viewBox="0 0 45 49" fill="none" xmlns="http://www.w3.org/2000/svg">
<path d="M42 20L45 20" stroke="#C70017" stroke-width="3"/>
<path d="M42 30L45 30" stroke="#C70017" stroke-width="3"/>
<path d="M38.5 25L45 25" stroke="#C70017" stroke-width="3"/>
<path d="M21 25L11.5 25" stroke="#C70017" stroke-width="3"/>
<path d="M15 23L7 23" stroke="#C70017" stroke-width="3"/>
<path d="M15 27L7 27" stroke="#C70017" stroke-width="3"/>
<path d="M42 49L42 35" stroke="#C70017" stroke-width="3"/>
<path d="M42 15L42 0" stroke="#C70017" stroke-width="3"/>
<rect width="22" height="10" transform="matrix(1 1.74846e-07 1.74846e-07 -1 20 30)" stroke="#C70017" stroke-width="3"/>
<path d="M8.5 20.5V28.9746L7.60938 29.3711L0 32.7529V29.4697L5.5 27.0254V23.5H0V20.5H8.5Z" fill="#C70017"/>
<path d="M37.5 35L30 42.5" stroke="#C70017" stroke-width="3"/>
<path d="M37.5 14.5L30 7" stroke="#C70017" stroke-width="3"/>
</svg>
