<svg width="50" height="38" viewBox="0 0 50 38" fill="none" xmlns="http://www.w3.org/2000/svg">
<path d="M38.9639 20C38.4511 27.2652 32.3957 33 25 33C17.6043 33 11.5499 27.2652 11.0371 20L7.5 20L7.5 17L11.1436 17C12.0678 10.539 17.4019 5.50182 24 5.03613L24 3.5C24 3.22386 23.7761 3 23.5 3L8 3C7.17157 3 6.5 3.67157 6.5 4.5L6.5 10.5L-4.5897e-07 10.5L-3.27835e-07 7.5L3.5 7.5L3.5 4.5C3.5 2.01472 5.51472 -1.94452e-06 8 -1.83588e-06L23.5 -1.15835e-06C25.433 -1.07386e-06 27 1.567 27 3.5L27 5.14258C33.1313 6.01964 37.9804 10.8687 38.8574 17L42.5 17L42.5 20L38.9639 20ZM-1.66103e-06 38L-1.5299e-06 35L14 35L14 38L-1.66103e-06 38ZM1.5 16.3662L1.5 13.3662L9 13.3662L9 16.3662L1.5 16.3662ZM28.8877 20C28.4329 22.0039 26.6415 23.5 24.5 23.5C22.3585 23.5 20.5682 22.0038 20.1133 20L14.0479 20C14.5532 25.6064 19.262 30 25 30C30.738 30 35.4478 25.6064 35.9531 20L28.8877 20ZM35.8154 17C34.8747 11.88 30.3919 8 25 8C19.6081 8 15.1264 11.8801 14.1855 17L20.4687 17C21.2052 15.5185 22.7333 14.5 24.5 14.5C26.2669 14.5 27.7959 15.5183 28.5322 17L35.8154 17ZM36 38L36 35L50 35L50 38L36 38Z" fill="#C70017"/>
</svg>
