<svg width="49" height="49" viewBox="0 0 49 49" fill="none" xmlns="http://www.w3.org/2000/svg">
<rect width="48.3328" height="48.3328" fill="#C70017"/>
<path d="M23.4459 12.7563C23.9541 12.7563 24.4535 12.7939 24.9418 12.8653L24.6662 12.9542C24.3067 13.0827 23.9975 13.3136 23.7792 13.622C23.6865 13.7531 23.6134 13.894 23.5587 14.0417C23.5212 14.0412 23.4836 14.0392 23.4459 14.0392C18.4862 14.0392 14.4655 18.0598 14.4655 23.0196C14.4655 27.9793 18.4862 32 23.4459 32C27.6176 32 31.1227 29.155 32.1319 25.2998C32.409 25.4839 32.7329 25.583 33.0703 25.5842C33.1792 25.5839 33.286 25.5733 33.3911 25.5579C32.2612 29.9983 28.238 33.2829 23.4459 33.2829C17.7777 33.2829 13.1826 28.6879 13.1826 23.0196C13.1826 17.3513 17.7777 12.7563 23.4459 12.7563ZM26.8474 20.0002C27.0979 19.7497 27.504 19.7497 27.7545 20.0002C27.9772 20.2229 28.0016 20.5683 27.8284 20.8183L27.7545 20.9073L22.6166 26.0452C22.3939 26.2679 22.0484 26.2923 21.7985 26.1191L21.7095 26.0452L19.1437 23.4794C18.8932 23.2289 18.8932 22.8228 19.1437 22.5723C19.3663 22.3497 19.7118 22.3252 19.9618 22.4984L20.0507 22.5723L22.163 24.6846L26.8474 20.0002ZM33.0641 25.5854H33.0766L33.0703 25.5842L33.0641 25.5854ZM33.0478 17.8879C33.128 17.8879 33.2065 17.913 33.272 17.9593C33.3374 18.0055 33.3869 18.0706 33.4136 18.146L33.7331 19.1282C33.8323 19.4264 34.0006 19.6978 34.2229 19.92C34.4453 20.1421 34.7165 20.3096 35.0147 20.4087L35.997 20.7269L36.0158 20.7319C36.0913 20.7585 36.1574 20.8081 36.2037 20.8735C36.2501 20.9389 36.2751 21.0175 36.2751 21.0977C36.2751 21.1779 36.2501 21.2565 36.2037 21.322C36.1574 21.3873 36.0913 21.4369 36.0158 21.4636L35.0348 21.7818C34.7363 21.8809 34.4642 22.0482 34.2417 22.2704C34.0194 22.4926 33.8524 22.7641 33.7531 23.0622L33.4337 24.0444C33.4069 24.1198 33.3573 24.1849 33.2921 24.2311C33.2266 24.2774 33.1481 24.3025 33.0678 24.3025C32.9876 24.3025 32.9091 24.2774 32.8436 24.2311C32.7783 24.1849 32.7287 24.1198 32.702 24.0444L32.3825 23.0622C32.2839 22.7632 32.1175 22.4909 31.8952 22.2679C31.6727 22.0447 31.3999 21.8764 31.1008 21.7768L30.1199 21.4585C30.0443 21.4319 29.9783 21.3823 29.9319 21.317C29.8856 21.2515 29.8605 21.1729 29.8605 21.0927C29.8605 21.0125 29.8856 20.9339 29.9319 20.8685C29.9783 20.8032 30.0443 20.7535 30.1199 20.7269L31.1008 20.4087C31.3957 20.3069 31.6637 20.1384 31.8826 19.9163C32.1015 19.6942 32.2664 19.4244 32.3637 19.1282L32.6819 18.146C32.7086 18.0707 32.7584 18.0056 32.8235 17.9593C32.8889 17.9131 32.9677 17.888 33.0478 17.8879ZM29.1915 10.1904C29.3038 10.1904 29.413 10.2258 29.5047 10.2907C29.5964 10.3555 29.6665 10.4466 29.7039 10.5525L30.1499 11.9269C30.2889 12.3443 30.524 12.7233 30.8352 13.0344C31.1465 13.3454 31.5263 13.5796 31.944 13.7184L33.3196 14.1657L33.3472 14.172C33.4531 14.2093 33.5442 14.2796 33.6091 14.3712C33.6739 14.4628 33.7093 14.5722 33.7093 14.6844C33.7092 14.7966 33.6739 14.906 33.6091 14.9976C33.5442 15.089 33.4529 15.1582 33.3472 15.1956L31.9716 15.6428C31.5539 15.7817 31.1741 16.0158 30.8628 16.3269C30.5515 16.638 30.3164 17.017 30.1775 17.4344L29.7315 18.8088C29.6941 18.9147 29.624 19.0058 29.5323 19.0706C29.4406 19.1354 29.3314 19.1708 29.2191 19.1708C29.1067 19.1708 28.9976 19.1354 28.9059 19.0706C28.8971 19.0644 28.8879 19.0585 28.8795 19.0518C28.8009 18.9887 28.7404 18.9042 28.7067 18.8088L28.2606 17.4344C28.2367 17.3617 28.2089 17.2904 28.1792 17.2202C28.0381 16.8859 27.8338 16.5812 27.5766 16.3231C27.5277 16.2741 27.4771 16.2267 27.425 16.1815C27.145 15.9391 26.8193 15.7529 26.4666 15.6353L25.0909 15.1893C24.985 15.1519 24.894 15.0817 24.8291 14.9901C24.7643 14.8985 24.7289 14.7891 24.7289 14.6769C24.7289 14.5647 24.7643 14.4552 24.8291 14.3637C24.8939 14.2723 24.9852 14.2031 25.0909 14.1657L26.4666 13.7184C26.8792 13.576 27.254 13.3402 27.5603 13.0294C27.8665 12.7186 28.097 12.3412 28.2331 11.9269L28.6791 10.5525C28.7165 10.4466 28.7866 10.3555 28.8783 10.2907C28.97 10.2258 29.0792 10.1904 29.1915 10.1904Z" fill="white"/>
</svg>
