<svg width="49" height="49" viewBox="0 0 49 49" fill="none" xmlns="http://www.w3.org/2000/svg">
<rect width="48.3328" height="48.3328" fill="#C70017"/>
<g clip-path="url(#clip0_159_662)">
<rect width="22.2484" height="22.2484" transform="translate(13 12)" fill="white" fill-opacity="0.01"/>
<path d="M28.9911 31.1822L27.1904 29.3816L26.2101 30.362L28.9911 33.143L34.5532 27.5809L33.5728 26.6006L28.9911 31.1822Z" fill="white"/>
<path d="M24.1243 27.9911L22.6373 27.287C21.4287 26.7153 20.6479 25.4816 20.6479 24.1448V19.6479H27.6006V24.1448C27.6006 25.4817 26.8198 26.7154 25.6112 27.287L24.1243 27.9911ZM22.0385 21.0385V24.1448C22.0385 24.9466 22.5069 25.6867 23.2321 26.0296L24.1243 26.4519L25.0164 26.0296C25.7416 25.6867 26.2101 24.9466 26.2101 24.1448V21.0385H22.0385Z" fill="white"/>
<path d="M15.8651 24.2758C16.2339 24.0259 16.4764 23.6032 16.4764 23.1243C16.4764 22.3563 15.8538 21.7337 15.0858 21.7337C14.3179 21.7337 13.6953 22.3563 13.6953 23.1243C13.6953 23.6726 14.0156 24.1424 14.4768 24.3688C14.949 28.0773 17.4992 31.2155 21.1295 32.3884L21.5569 31.0652C18.473 30.0691 16.2978 27.4177 15.8651 24.2758Z" fill="white"/>
<path d="M33.7717 21.8797C33.2995 18.1712 30.7493 15.033 27.119 13.8601L26.6917 15.1834C29.7755 16.1794 31.9508 18.8308 32.3834 21.9727C32.0146 22.2226 31.7722 22.6452 31.7722 23.1242C31.7722 23.8921 32.3948 24.5147 33.1627 24.5147C33.9306 24.5147 34.5532 23.8921 34.5532 23.1242C34.5532 22.5759 34.2331 22.1061 33.7717 21.8797Z" fill="white"/>
<path d="M24.1243 12.6953C23.5758 12.6953 23.1061 13.0154 22.8799 13.4768C19.1713 13.949 16.033 16.4992 14.8601 20.1293L16.1834 20.5571C17.1796 17.4732 19.8308 15.2978 22.9727 14.8653C23.2227 15.234 23.645 15.4764 24.1242 15.4764C24.8921 15.4764 25.5147 14.8538 25.5147 14.0858C25.5147 13.3179 24.8922 12.6953 24.1243 12.6953Z" fill="white"/>
</g>
<defs>
<clipPath id="clip0_159_662">
<rect width="22.2484" height="22.2484" fill="white" transform="translate(13 12)"/>
</clipPath>
</defs>
</svg>
