<svg width="50" height="44" viewBox="0 0 50 44" fill="none" xmlns="http://www.w3.org/2000/svg">
<path d="M14 44H0V41H14V44ZM50 44H36V41H50V44ZM25 0C37.4264 0 47.5 10.0736 47.5 22.5V26H38.9639C38.4511 33.2652 32.3957 39 25 39C17.6043 39 11.5489 33.2652 11.0361 26H7.5V23H11.1426C12.0668 16.5389 17.4019 11.5018 24 11.0361V9.5C24 9.22386 23.7761 9 23.5 9H8C7.17157 9 6.5 9.67157 6.5 10.5V16.5H0V13.5H3.5V10.5C3.5 8.01472 5.51472 6 8 6H23.5C25.433 6 27 7.567 27 9.5V11.1426C33.1313 12.0196 37.9804 16.8687 38.8574 23H44.5V22.5C44.5 11.7304 35.7696 3 25 3H22V0H25ZM14.0469 26C14.5522 31.6064 19.262 36 25 36C30.738 36 35.4478 31.6064 35.9531 26H28.8867C28.4318 28.0038 26.6415 29.5 24.5 29.5C22.3585 29.5 20.5682 28.0038 20.1133 26H14.0469ZM25 14C19.6081 14 15.1253 17.88 14.1846 23H20.4688C21.2052 21.5185 22.7333 20.5 24.5 20.5L24.7314 20.5059C26.3995 20.5904 27.8272 21.5836 28.5312 23H35.8154C34.8747 17.88 30.3919 14 25 14ZM9 22.3662H1.5V19.3662H9V22.3662Z" fill="#C70017"/>
</svg>
