<svg width="50" height="45" viewBox="0 0 50 45" fill="none" xmlns="http://www.w3.org/2000/svg">
<path d="M17 45H0V42H17V45ZM50 45H33V42H50V45ZM32 0C33.933 0 35.5 1.567 35.5 3.5V3.98438L36.7881 4.5H44V12.5H36.915L35.5 13.3486V17.7275L31.5439 25H30.5V30H28.5V39.5H25.5V30H24.5V39.5H21.5V30H19.5V25H18.9072L14.5 17.7676V13.3486L13.085 12.5H6V4.5H13.2119L14.5 3.98438V3.5C14.5 1.567 16.067 0 18 0H32ZM18.5605 35.4395L16.4395 37.5605L10.9395 32.0605L13.0605 29.9395L18.5605 35.4395ZM38.5605 32.0605L33.0605 37.5605L30.9395 35.4395L36.4395 29.9395L38.5605 32.0605ZM22.5 27H27.5V25H22.5V27ZM18 3C17.7239 3 17.5 3.22386 17.5 3.5V16.9238L20.5928 22H29.7598L32.5 16.9639V3.5C32.5 3.22386 32.2761 3 32 3H18ZM22.5 14.5H19.5V6.5H22.5V14.5ZM26.5 14.5H23.5V6.5H26.5V14.5ZM30.5 14.5H27.5V6.5H30.5V14.5ZM35.5 9.85059L36.085 9.5H41V7.5H36.2109L35.9434 7.39258L35.5 7.21484V9.85059ZM14.0566 7.39258L13.7891 7.5H9V9.5H13.915L14.5 9.85059V7.21484L14.0566 7.39258Z" fill="#C70017"/>
</svg>
