<svg width="38" height="50" viewBox="0 0 38 50" fill="none" xmlns="http://www.w3.org/2000/svg">
<path d="M20 11.0361C27.2652 11.5489 33 17.6043 33 25C33 32.3957 27.2652 38.4501 20 38.9629V42.5H17V38.8564C10.539 37.9322 5.50183 32.5981 5.03613 26H3.5C3.22386 26 3 26.2239 3 26.5V42C3 42.8284 3.67157 43.5 4.5 43.5H10.5V50H7.5V46.5H4.5C2.01472 46.5 0 44.4853 0 42V26.5C0 24.567 1.567 23 3.5 23H5.14258C5.61447 19.7011 7.23507 16.7725 9.58789 14.6348L7.74512 11.8223L10.2549 10.1777L12.0146 12.8633C13.5216 11.9941 15.2063 11.3992 17 11.1426V7.5H20V11.0361ZM38 50H35V36H38V50ZM16.3662 48.5H13.3662V41H16.3662V48.5ZM20 21.1123C22.0039 21.5671 23.5 23.3585 23.5 25.5C23.5 27.6415 22.0038 29.4318 20 29.8867V35.9521C25.6064 35.4468 30 30.738 30 25C30 19.262 25.6064 14.5522 20 14.0469V21.1123ZM11.2588 17.1855C9.24662 19.179 8 21.9438 8 25C8 30.3919 11.8801 34.8736 17 35.8145V29.5312C15.5185 28.7948 14.5 27.2667 14.5 25.5C14.5 24.6372 14.743 23.8312 15.1641 23.1465L11.2588 17.1855ZM17 14.1846C15.8098 14.4033 14.687 14.8122 13.6641 15.3809L17 20.4727V14.1846ZM38 14H35V0H38V14Z" fill="#C70017"/>
</svg>
