<svg width="280" height="39" viewBox="0 0 280 39" fill="none" xmlns="http://www.w3.org/2000/svg">
<g clip-path="url(#clip0_262_183)">
<path d="M52.6121 0.338867H64.4543C66.4507 0.338867 67.9625 0.842794 68.9897 1.84096C70.0169 2.83912 70.5305 4.22492 70.5305 5.98866C70.5305 7.11281 70.2786 8.0819 69.7843 8.89594C69.2901 9.70997 68.6214 10.243 67.788 10.4949C68.6214 10.5918 69.261 10.9116 69.6971 11.4543C70.1332 11.997 70.3561 12.6657 70.3561 13.47V20.3797H66.3344V14.4198C66.3344 13.8286 66.2084 13.3828 65.9661 13.0824C65.7142 12.782 65.2587 12.6269 64.5997 12.6269H56.6435V20.3893H52.6217V0.338867H52.6121ZM63.9117 8.87655C64.7838 8.87655 65.4331 8.66335 65.8498 8.23695C66.2665 7.81055 66.4797 7.21941 66.4797 6.4829C66.4797 5.68825 66.2665 5.08741 65.8498 4.69977C65.4331 4.31214 64.7645 4.11832 63.8535 4.11832H56.6338V8.88624H63.9117V8.87655Z" fill="white"/>
<path d="M74.5232 0.338867H90.5907V4.1377H78.5546V8.45015H90.5907V12.249H78.5546V16.5905H90.5907V20.3893H74.5232V0.338867Z" fill="white"/>
<path d="M94.5251 0.338867H103.315C106.455 0.338867 108.848 1.20136 110.505 2.93603C112.163 4.6707 112.986 7.14188 112.986 10.3593C112.986 13.5766 112.163 16.0478 110.505 17.7825C108.848 19.5172 106.455 20.3797 103.315 20.3797H94.5251V0.338867ZM103.034 16.5808C105.03 16.5808 106.513 16.0478 107.482 14.9721C108.451 13.8964 108.936 12.3556 108.936 10.3399C108.936 8.32417 108.451 6.81239 107.482 5.74639C106.513 4.68039 105.03 4.14739 103.034 4.14739H98.5566V16.5905H103.034V16.5808Z" fill="white"/>
<path d="M127.697 19.1877C126.185 18.4027 125.013 17.2495 124.169 15.7474C123.336 14.2453 122.91 12.4428 122.91 10.3593C122.91 8.27572 123.326 6.46352 124.169 4.95174C125.003 3.43996 126.185 2.29643 127.697 1.51147C129.209 0.726503 130.963 0.338867 132.959 0.338867H140.121V4.16677H133.182C131.302 4.16677 129.81 4.69977 128.705 5.76577C127.6 6.83177 127.048 8.36294 127.048 10.3593C127.048 12.3556 127.6 13.8868 128.705 14.9528C129.81 16.0188 131.302 16.5518 133.182 16.5518H140.121V20.3797H132.959C130.963 20.3797 129.209 19.9823 127.697 19.1974V19.1877Z" fill="white"/>
<path d="M146.662 19.3916C145.102 18.5097 143.871 17.279 142.98 15.6993C142.088 14.1197 141.642 12.3366 141.642 10.3306C141.642 8.32456 142.088 6.55113 142.98 4.9812C143.871 3.41127 145.102 2.19022 146.662 1.31804C148.222 0.445856 149.977 0.00976562 151.915 0.00976562H151.973C153.911 0.00976562 155.665 0.445856 157.235 1.31804C158.805 2.19022 160.036 3.41127 160.927 4.9812C161.819 6.55113 162.265 8.33425 162.265 10.3306C162.265 12.3269 161.819 14.1197 160.927 15.6993C160.036 17.279 158.805 18.5097 157.235 19.3916C155.665 20.2734 153.911 20.7192 151.973 20.7192H151.915C149.977 20.7192 148.222 20.2734 146.662 19.3916ZM146.507 13.7418C147.05 14.7206 147.796 15.4861 148.736 16.0288C149.676 16.5715 150.752 16.8429 151.944 16.8429C153.136 16.8429 154.221 16.5715 155.171 16.0288C156.121 15.4861 156.867 14.7302 157.409 13.7418C157.952 12.763 158.223 11.6388 158.223 10.3597C158.223 9.08045 157.952 7.95631 157.409 6.97753C156.867 5.99874 156.121 5.23316 155.171 4.69047C154.221 4.14778 153.145 3.87644 151.944 3.87644C150.742 3.87644 149.676 4.14778 148.736 4.69047C147.796 5.23316 147.05 5.99874 146.507 6.97753C145.964 7.95631 145.693 9.08045 145.693 10.3597C145.693 11.6388 145.964 12.763 146.507 13.7418Z" fill="white"/>
<path d="M165.433 0.338867H177.276C179.272 0.338867 180.784 0.842794 181.811 1.84096C182.838 2.83912 183.352 4.22492 183.352 5.98866C183.352 7.11281 183.1 8.0819 182.606 8.89594C182.111 9.70997 181.443 10.243 180.609 10.4949C181.443 10.5918 182.082 10.9116 182.518 11.4543C182.954 11.997 183.177 12.6657 183.177 13.47V20.3797H179.156V14.4198C179.156 13.8286 179.03 13.3828 178.787 13.0824C178.545 12.782 178.08 12.6269 177.421 12.6269H169.465V20.3893H165.443V0.338867H165.433ZM176.733 8.87655C177.605 8.87655 178.254 8.66335 178.671 8.23695C179.088 7.81055 179.301 7.21941 179.301 6.4829C179.301 5.68825 179.088 5.08741 178.671 4.69977C178.254 4.31214 177.586 4.11832 176.675 4.11832H169.455V8.88624H176.733V8.87655Z" fill="white"/>
<path d="M187.344 0.338867H203.412V4.1377H191.376V8.45015H203.412V12.249H191.376V16.5905H203.412V20.3893H187.344V0.338867Z" fill="white"/>
<path d="M53.2903 36.8836V31.2822H55.6549C56.2557 31.2822 56.779 31.3985 57.2345 31.6311C57.69 31.8637 58.0485 32.1932 58.3005 32.6196C58.5524 33.046 58.6784 33.5305 58.6784 34.0829C58.6784 34.6353 58.5524 35.1295 58.3005 35.5462C58.0485 35.9629 57.69 36.2924 57.2345 36.5347C56.779 36.7673 56.2557 36.8836 55.6549 36.8836H53.2903ZM54.0946 36.1858H55.6064C56.0716 36.1858 56.4689 36.0986 56.8081 35.9242C57.1473 35.7497 57.4089 35.4978 57.593 35.1877C57.7772 34.8776 57.8741 34.4996 57.8741 34.0829C57.8741 33.6662 57.7772 33.2979 57.593 32.9781C57.4089 32.6583 57.1473 32.4161 56.8081 32.2416C56.4689 32.0672 56.0716 31.98 55.6064 31.98H54.0946V36.1955V36.1858Z" fill="white"/>
<path d="M61.5081 36.8836V31.2822H63.6982C64.1924 31.2822 64.6091 31.3598 64.958 31.5148C65.3069 31.6699 65.5685 31.8928 65.7624 32.1835C65.9465 32.4742 66.0434 32.8231 66.0434 33.2301C66.0434 33.6371 65.9465 33.986 65.7624 34.2767C65.5782 34.5674 65.3069 34.7903 64.958 34.9454C64.6091 35.1004 64.1924 35.178 63.6982 35.178H61.9538L62.3124 34.8097V36.8836H61.5081ZM62.3027 34.8872L61.9441 34.4996H63.6691C64.1827 34.4996 64.5704 34.393 64.832 34.1701C65.0937 33.9472 65.2294 33.6371 65.2294 33.2398C65.2294 32.8425 65.0937 32.5324 64.832 32.3095C64.5704 32.0866 64.1827 31.98 63.6691 31.98H61.9441L62.3027 31.5826V34.8969V34.8872ZM65.2584 36.8836L63.8339 34.8485H64.6867L66.1306 36.8836H65.2584Z" fill="white"/>
<path d="M68.9314 36.8836V31.2822H69.7357V36.8836H68.9314Z" fill="white"/>
<path d="M73.0112 36.8836V31.2822H73.8156V36.1858H76.8488V36.8836H73.0112Z" fill="white"/>
<path d="M79.3682 36.8836V31.2822H80.1725V36.1858H83.2058V36.8836H79.3682Z" fill="white"/>
<path d="M85.7258 36.8836V31.2822H86.5302V36.8836H85.7258Z" fill="white"/>
<path d="M89.8057 36.8836V31.2822H90.4646L94.1666 35.8854H93.8274V31.2822H94.6317V36.8836H93.9728L90.2708 32.2804H90.61V36.8836H89.8057Z" fill="white"/>
<path d="M100.437 36.9514C100 36.9514 99.6031 36.8835 99.2446 36.7382C98.886 36.5928 98.5662 36.399 98.3045 36.1373C98.0332 35.8757 97.8297 35.5753 97.6843 35.2264C97.539 34.8775 97.4614 34.4996 97.4614 34.0829C97.4614 33.6662 97.539 33.2882 97.6843 32.9393C97.8297 32.5905 98.0429 32.29 98.3142 32.0284C98.5856 31.7667 98.8957 31.5729 99.2639 31.4276C99.6322 31.2822 100.03 31.2144 100.466 31.2144C100.902 31.2144 101.318 31.2822 101.687 31.4276C102.055 31.5729 102.365 31.7861 102.627 32.0768L102.132 32.5711C101.9 32.3482 101.658 32.1834 101.386 32.0768C101.115 31.9702 100.824 31.9218 100.514 31.9218C100.204 31.9218 99.8938 31.9799 99.6225 32.0865C99.3512 32.1931 99.1089 32.3385 98.9054 32.5323C98.7019 32.7261 98.5468 32.949 98.4402 33.2204C98.3336 33.482 98.2755 33.7728 98.2755 34.0829C98.2755 34.393 98.3336 34.674 98.4402 34.9357C98.5468 35.1973 98.7019 35.4299 98.9054 35.6237C99.1089 35.8175 99.3415 35.9726 99.6128 36.0792C99.8842 36.1858 100.185 36.2439 100.504 36.2439C100.805 36.2439 101.086 36.1955 101.367 36.0986C101.638 36.0017 101.9 35.8466 102.132 35.6334L102.588 36.2439C102.307 36.4765 101.987 36.6606 101.619 36.7769C101.251 36.8932 100.863 36.9611 100.466 36.9611L100.437 36.9514ZM101.793 36.1276V34.0441H102.559V36.2342L101.793 36.1276Z" fill="white"/>
<path d="M110.922 36.9511C110.544 36.9511 110.205 36.893 109.914 36.767C109.623 36.641 109.391 36.4763 109.216 36.2534C109.042 36.0305 108.964 35.7785 108.964 35.4975C108.964 35.2455 109.022 35.0129 109.129 34.8094C109.236 34.6059 109.42 34.4024 109.662 34.2086C109.904 34.0148 110.234 33.8113 110.631 33.6077C110.961 33.4333 111.213 33.2879 111.397 33.162C111.581 33.036 111.717 32.91 111.784 32.7937C111.862 32.6774 111.901 32.5514 111.901 32.4255C111.901 32.2413 111.833 32.096 111.707 31.9797C111.581 31.8634 111.397 31.8052 111.154 31.8052C110.912 31.8052 110.709 31.8634 110.563 31.9894C110.418 32.1153 110.35 32.2801 110.35 32.4836C110.35 32.5805 110.37 32.6871 110.399 32.7743C110.437 32.8712 110.496 32.9681 110.592 33.0844C110.689 33.2007 110.825 33.3461 110.999 33.5205L113.965 36.4666L113.529 36.9802L110.379 33.85C110.195 33.6659 110.05 33.5011 109.943 33.3461C109.837 33.2007 109.759 33.0554 109.711 32.9197C109.662 32.784 109.643 32.6387 109.643 32.4933C109.643 32.2413 109.701 32.0184 109.827 31.8343C109.953 31.6405 110.127 31.4951 110.36 31.3982C110.583 31.2916 110.854 31.2432 111.154 31.2432C111.436 31.2432 111.687 31.2916 111.891 31.3788C112.095 31.4757 112.259 31.6017 112.376 31.7762C112.492 31.9506 112.55 32.1638 112.55 32.4061C112.55 32.6193 112.502 32.8131 112.395 32.9972C112.288 33.1813 112.124 33.3558 111.891 33.5302C111.658 33.7047 111.348 33.8888 110.961 34.0826C110.641 34.2473 110.389 34.4024 110.205 34.5478C110.021 34.6931 109.895 34.8288 109.817 34.9645C109.74 35.1001 109.701 35.2552 109.701 35.4199C109.701 35.5944 109.749 35.7494 109.856 35.8851C109.963 36.0208 110.108 36.1274 110.292 36.2049C110.476 36.2824 110.699 36.3212 110.951 36.3212C111.31 36.3212 111.629 36.2437 111.92 36.0886C112.211 35.9336 112.453 35.701 112.647 35.3909C112.841 35.0808 112.986 34.6931 113.073 34.2377L113.694 34.4412C113.587 34.9839 113.403 35.4393 113.141 35.8076C112.879 36.1855 112.56 36.4666 112.182 36.6604C111.804 36.8542 111.377 36.9608 110.903 36.9608L110.922 36.9511Z" fill="white"/>
<path d="M121.931 36.9514C121.504 36.9514 121.097 36.8836 120.709 36.7576C120.322 36.6316 120.012 36.4572 119.789 36.2537L120.089 35.6335C120.302 35.8176 120.574 35.9727 120.903 36.0986C121.233 36.2246 121.582 36.2828 121.94 36.2828C122.27 36.2828 122.531 36.244 122.735 36.1665C122.938 36.089 123.084 35.992 123.181 35.8564C123.278 35.7304 123.326 35.5753 123.326 35.4106C123.326 35.2168 123.268 35.0617 123.142 34.9454C123.016 34.8291 122.851 34.7322 122.657 34.6644C122.464 34.5966 122.241 34.5287 121.998 34.4803C121.756 34.4318 121.514 34.364 121.272 34.2961C121.029 34.2283 120.806 34.1314 120.603 34.0151C120.399 33.8988 120.244 33.7534 120.118 33.5596C119.992 33.3658 119.934 33.1235 119.934 32.8231C119.934 32.5227 120.012 32.2707 120.167 32.0285C120.322 31.7862 120.554 31.5924 120.874 31.447C121.194 31.3016 121.601 31.2241 122.086 31.2241C122.415 31.2241 122.735 31.2629 123.055 31.3501C123.374 31.4373 123.655 31.5536 123.888 31.7184L123.626 32.358C123.384 32.1932 123.132 32.0769 122.871 32.0091C122.609 31.9412 122.347 31.9025 122.095 31.9025C121.775 31.9025 121.523 31.9412 121.32 32.0188C121.116 32.0963 120.971 32.2029 120.874 32.3386C120.777 32.4742 120.739 32.6196 120.739 32.7844C120.739 32.9782 120.797 33.1429 120.923 33.2592C121.049 33.3755 121.213 33.4724 121.407 33.5402C121.601 33.6081 121.824 33.6759 122.066 33.7244C122.308 33.7825 122.551 33.8407 122.793 33.9085C123.035 33.9763 123.258 34.0732 123.462 34.1798C123.665 34.2864 123.82 34.4415 123.946 34.6256C124.072 34.8098 124.13 35.052 124.13 35.3428C124.13 35.6335 124.053 35.8854 123.898 36.1277C123.743 36.37 123.5 36.5638 123.181 36.7092C122.861 36.8545 122.454 36.9321 121.96 36.9321L121.931 36.9514Z" fill="white"/>
<path d="M126.021 36.8836L128.56 31.2822H129.354L131.903 36.8836H131.06L128.792 31.728H129.112L126.844 36.8836H126.021ZM127.096 35.4881L127.309 34.8485H130.459L130.692 35.4881H127.087H127.096Z" fill="white"/>
<path d="M135.324 36.8836L133.454 31.2822H134.277L136.002 36.4572H135.586L137.369 31.2822H138.105L139.85 36.4572H139.452L141.197 31.2822H141.953L140.082 36.8836H139.239L137.601 32.0866H137.815L136.177 36.8836H135.324Z" fill="white"/>
<path d="M144.53 36.8836V31.2822H145.335V36.8836H144.53Z" fill="white"/>
<path d="M148.61 36.8836V31.2822H149.269L152.971 35.8854H152.632V31.2822H153.436V36.8836H152.777L149.075 32.2804H149.414V36.8836H148.61Z" fill="white"/>
<path d="M159.241 36.9514C158.805 36.9514 158.408 36.8835 158.049 36.7382C157.69 36.5928 157.371 36.399 157.109 36.1373C156.838 35.8757 156.634 35.5753 156.489 35.2264C156.343 34.8775 156.266 34.4996 156.266 34.0829C156.266 33.6662 156.343 33.2882 156.489 32.9393C156.634 32.5905 156.847 32.29 157.119 32.0284C157.39 31.7667 157.7 31.5729 158.068 31.4276C158.437 31.2822 158.834 31.2144 159.27 31.2144C159.706 31.2144 160.123 31.2822 160.491 31.4276C160.859 31.5729 161.169 31.7861 161.431 32.0768L160.937 32.5711C160.704 32.3482 160.462 32.1834 160.191 32.0768C159.919 31.9702 159.629 31.9218 159.318 31.9218C159.008 31.9218 158.698 31.9799 158.427 32.0865C158.156 32.1931 157.913 32.3385 157.71 32.5323C157.506 32.7261 157.351 32.949 157.245 33.2204C157.138 33.482 157.08 33.7728 157.08 34.0829C157.08 34.393 157.138 34.674 157.245 34.9357C157.351 35.1973 157.506 35.4299 157.71 35.6237C157.913 35.8175 158.146 35.9726 158.417 36.0792C158.689 36.1858 158.989 36.2439 159.309 36.2439C159.609 36.2439 159.89 36.1955 160.171 36.0986C160.443 36.0017 160.704 35.8466 160.937 35.6334L161.392 36.2439C161.111 36.4765 160.792 36.6606 160.423 36.7769C160.055 36.8932 159.667 36.9611 159.27 36.9611L159.241 36.9514ZM160.598 36.1276V34.0441H161.363V36.2342L160.598 36.1276Z" fill="white"/>
<path d="M37.8527 0.397461H0V38.2501H37.8527V0.397461Z" fill="#C70017"/>
<path d="M28.2584 24.5564V28.0936H27.2215V26.7368H23.7425V28.0936H20.6705V26.7368H17.1817V28.0936H14.1097V26.7368H10.6307V28.0936H9.59375V21.8623L28.2584 24.5564Z" fill="white"/>
<path d="M28.2584 18.3352V22.4829L9.59375 19.7888V15.6411L28.2584 18.3352Z" fill="white"/>
<path d="M28.2584 11.4933V16.2612L9.59375 13.5672V11.4933H15.9994V10.563H21.8527V11.4933H28.2584Z" fill="white"/>
<text x="216" y="20" fill="white" font-family="'Arial Black', 'Arial', Helvetica, sans-serif" font-size="28" font-weight="900" letter-spacing="2">INC.</text>
</g>
<defs>
<clipPath id="clip0_262_183">
<rect width="280" height="38.25" fill="white"/>
</clipPath>
</defs>
</svg>
